<mxfile modified="2023-02-09T14:42:22.859Z" host="app.diagrams.net" agent="5.0 (Windows NT 10.0; Win64; x64) AppleWebKit/537.36 (KHTML, like Gecko) Chrome/109.0.0.0 Safari/537.36" etag="-iFTahCRLcoUJOnsRSpV" version="20.8.18" type="github" pages="3">
  <diagram id="yFxvUsbLEUqBpw0Uelwa" name="模板审核流程_1">
    <mxGraphModel dx="1434" dy="764" grid="1" gridSize="10" guides="1" tooltips="1" connect="1" arrows="1" fold="1" page="1" pageScale="1" pageWidth="827" pageHeight="1169" math="0" shadow="0">
      <root>
        <mxCell id="0" />
        <mxCell id="1" parent="0" />
        <mxCell id="qdXzB4fbS7DAhHp_a4e5-3" value="&lt;b&gt;&lt;font color=&quot;#ff6666&quot;&gt;(1)&lt;/font&gt;&lt;/b&gt;提交模板" style="edgeStyle=orthogonalEdgeStyle;rounded=0;orthogonalLoop=1;jettySize=auto;html=1;" parent="1" source="qdXzB4fbS7DAhHp_a4e5-1" edge="1">
          <mxGeometry relative="1" as="geometry">
            <mxPoint x="260" y="130" as="targetPoint" />
          </mxGeometry>
        </mxCell>
        <mxCell id="qdXzB4fbS7DAhHp_a4e5-28" style="edgeStyle=orthogonalEdgeStyle;rounded=0;orthogonalLoop=1;jettySize=auto;html=1;entryX=0.5;entryY=1;entryDx=0;entryDy=0;dashed=1;" parent="1" source="qdXzB4fbS7DAhHp_a4e5-1" target="qdXzB4fbS7DAhHp_a4e5-2" edge="1">
          <mxGeometry relative="1" as="geometry">
            <Array as="points">
              <mxPoint x="130" y="200" />
              <mxPoint x="310" y="200" />
            </Array>
          </mxGeometry>
        </mxCell>
        <mxCell id="qdXzB4fbS7DAhHp_a4e5-29" value="&lt;b&gt;&lt;font color=&quot;#ff6666&quot;&gt;(2)&lt;/font&gt;&lt;/b&gt;查询模板状态" style="text;html=1;resizable=0;points=[];align=center;verticalAlign=middle;labelBackgroundColor=#ffffff;" parent="qdXzB4fbS7DAhHp_a4e5-28" vertex="1" connectable="0">
          <mxGeometry x="-0.175" y="-1" relative="1" as="geometry">
            <mxPoint as="offset" />
          </mxGeometry>
        </mxCell>
        <mxCell id="qdXzB4fbS7DAhHp_a4e5-30" style="edgeStyle=orthogonalEdgeStyle;rounded=0;orthogonalLoop=1;jettySize=auto;html=1;exitX=0.5;exitY=1;exitDx=0;exitDy=0;exitPerimeter=0;entryX=0.75;entryY=1;entryDx=0;entryDy=0;dashed=1;" parent="1" source="qdXzB4fbS7DAhHp_a4e5-1" target="qdXzB4fbS7DAhHp_a4e5-2" edge="1">
          <mxGeometry relative="1" as="geometry">
            <Array as="points">
              <mxPoint x="130" y="230" />
              <mxPoint x="335" y="230" />
            </Array>
          </mxGeometry>
        </mxCell>
        <mxCell id="qdXzB4fbS7DAhHp_a4e5-31" value="&lt;font color=&quot;#ff6666&quot;&gt;&lt;b&gt;(3)&lt;/b&gt;&lt;/font&gt;使用模板发送短信" style="text;html=1;resizable=0;points=[];align=center;verticalAlign=middle;labelBackgroundColor=#ffffff;" parent="qdXzB4fbS7DAhHp_a4e5-30" vertex="1" connectable="0">
          <mxGeometry x="-0.2123" y="-1" relative="1" as="geometry">
            <mxPoint as="offset" />
          </mxGeometry>
        </mxCell>
        <mxCell id="qdXzB4fbS7DAhHp_a4e5-1" value="产品" style="strokeWidth=2;html=1;shape=mxgraph.flowchart.start_1;whiteSpace=wrap;fillColor=#fff2cc;strokeColor=#d6b656;" parent="1" vertex="1">
          <mxGeometry x="80" y="100" width="100" height="60" as="geometry" />
        </mxCell>
        <mxCell id="qdXzB4fbS7DAhHp_a4e5-7" value="存储数据库,状态为未审核" style="edgeStyle=orthogonalEdgeStyle;rounded=0;orthogonalLoop=1;jettySize=auto;html=1;exitX=1;exitY=0.25;exitDx=0;exitDy=0;" parent="1" source="qdXzB4fbS7DAhHp_a4e5-2" target="qdXzB4fbS7DAhHp_a4e5-6" edge="1">
          <mxGeometry relative="1" as="geometry" />
        </mxCell>
        <mxCell id="qdXzB4fbS7DAhHp_a4e5-8" style="edgeStyle=orthogonalEdgeStyle;rounded=0;orthogonalLoop=1;jettySize=auto;html=1;exitX=1;exitY=0.5;exitDx=0;exitDy=0;entryX=0;entryY=0.5;entryDx=0;entryDy=0;" parent="1" source="qdXzB4fbS7DAhHp_a4e5-2" target="qdXzB4fbS7DAhHp_a4e5-9" edge="1">
          <mxGeometry relative="1" as="geometry">
            <mxPoint x="500" y="130" as="targetPoint" />
          </mxGeometry>
        </mxCell>
        <mxCell id="qdXzB4fbS7DAhHp_a4e5-10" value="发送短信通知" style="text;html=1;resizable=0;points=[];align=center;verticalAlign=middle;labelBackgroundColor=#ffffff;" parent="qdXzB4fbS7DAhHp_a4e5-8" vertex="1" connectable="0">
          <mxGeometry x="-0.1571" y="2" relative="1" as="geometry">
            <mxPoint as="offset" />
          </mxGeometry>
        </mxCell>
        <mxCell id="qdXzB4fbS7DAhHp_a4e5-2" value="短信平台" style="rounded=1;whiteSpace=wrap;html=1;absoluteArcSize=1;arcSize=14;strokeWidth=2;fillColor=#b0e3e6;strokeColor=#0e8088;" parent="1" vertex="1">
          <mxGeometry x="260" y="80" width="100" height="100" as="geometry" />
        </mxCell>
        <mxCell id="qdXzB4fbS7DAhHp_a4e5-6" value="Mysql" style="strokeWidth=2;html=1;shape=mxgraph.flowchart.database;whiteSpace=wrap;fillColor=#b1ddf0;strokeColor=#10739e;" parent="1" vertex="1">
          <mxGeometry x="510" y="20" width="60" height="60" as="geometry" />
        </mxCell>
        <mxCell id="qdXzB4fbS7DAhHp_a4e5-11" value="&lt;b&gt;&lt;font color=&quot;#ff3333&quot;&gt;(1)&lt;/font&gt;&lt;/b&gt;提交模板信息" style="edgeStyle=orthogonalEdgeStyle;rounded=0;orthogonalLoop=1;jettySize=auto;html=1;exitX=1;exitY=0.5;exitDx=0;exitDy=0;entryX=0;entryY=0.5;entryDx=0;entryDy=0;" parent="1" source="qdXzB4fbS7DAhHp_a4e5-9" target="qdXzB4fbS7DAhHp_a4e5-12" edge="1">
          <mxGeometry x="-0.2264" relative="1" as="geometry">
            <mxPoint x="689" y="130" as="targetPoint" />
            <mxPoint x="589" y="130" as="sourcePoint" />
            <mxPoint as="offset" />
          </mxGeometry>
        </mxCell>
        <mxCell id="qdXzB4fbS7DAhHp_a4e5-21" style="edgeStyle=orthogonalEdgeStyle;rounded=0;orthogonalLoop=1;jettySize=auto;html=1;dashed=1;exitX=0.5;exitY=0.9;exitDx=0;exitDy=0;exitPerimeter=0;" parent="1" source="qdXzB4fbS7DAhHp_a4e5-9" edge="1">
          <mxGeometry relative="1" as="geometry">
            <mxPoint x="720" y="166" as="targetPoint" />
            <mxPoint x="545" y="161" as="sourcePoint" />
            <Array as="points">
              <mxPoint x="545" y="206" />
              <mxPoint x="720" y="206" />
            </Array>
          </mxGeometry>
        </mxCell>
        <mxCell id="qdXzB4fbS7DAhHp_a4e5-22" value="&lt;b&gt;&lt;font color=&quot;#ff3333&quot;&gt;(2)&lt;/font&gt;&lt;/b&gt;查询是否审核通过" style="text;html=1;resizable=0;points=[];align=center;verticalAlign=middle;labelBackgroundColor=#ffffff;" parent="qdXzB4fbS7DAhHp_a4e5-21" vertex="1" connectable="0">
          <mxGeometry x="-0.0421" y="2" relative="1" as="geometry">
            <mxPoint as="offset" />
          </mxGeometry>
        </mxCell>
        <mxCell id="qdXzB4fbS7DAhHp_a4e5-26" style="edgeStyle=orthogonalEdgeStyle;rounded=0;orthogonalLoop=1;jettySize=auto;html=1;exitX=0.5;exitY=0;exitDx=0;exitDy=0;entryX=1;entryY=0.5;entryDx=0;entryDy=0;entryPerimeter=0;dashed=1;" parent="1" source="qdXzB4fbS7DAhHp_a4e5-9" target="qdXzB4fbS7DAhHp_a4e5-6" edge="1">
          <mxGeometry relative="1" as="geometry">
            <Array as="points">
              <mxPoint x="545" y="90" />
              <mxPoint x="660" y="90" />
              <mxPoint x="660" y="50" />
            </Array>
          </mxGeometry>
        </mxCell>
        <mxCell id="qdXzB4fbS7DAhHp_a4e5-27" value="&lt;font color=&quot;#ff3333&quot;&gt;&lt;b&gt;(3)&lt;/b&gt;&lt;/font&gt;审核通过&lt;br&gt;修改数据库&lt;br&gt;模板状态" style="text;html=1;resizable=0;points=[];align=center;verticalAlign=middle;labelBackgroundColor=#ffffff;" parent="qdXzB4fbS7DAhHp_a4e5-26" vertex="1" connectable="0">
          <mxGeometry x="0.5462" y="-2" relative="1" as="geometry">
            <mxPoint as="offset" />
          </mxGeometry>
        </mxCell>
        <mxCell id="qdXzB4fbS7DAhHp_a4e5-9" value="运维人员" style="rounded=0;whiteSpace=wrap;html=1;gradientColor=#ffd966;fillColor=#fff2cc;strokeColor=#d6b656;" parent="1" vertex="1">
          <mxGeometry x="490" y="105" width="90" height="50" as="geometry" />
        </mxCell>
        <mxCell id="qdXzB4fbS7DAhHp_a4e5-13" value="&lt;span&gt;添加模板并提交&lt;/span&gt;" style="edgeStyle=orthogonalEdgeStyle;rounded=0;orthogonalLoop=1;jettySize=auto;html=1;entryX=0;entryY=0.5;entryDx=0;entryDy=0;entryPerimeter=0;" parent="1" source="qdXzB4fbS7DAhHp_a4e5-12" target="qdXzB4fbS7DAhHp_a4e5-14" edge="1">
          <mxGeometry x="0.1429" relative="1" as="geometry">
            <mxPoint x="830" y="130" as="targetPoint" />
            <mxPoint as="offset" />
          </mxGeometry>
        </mxCell>
        <mxCell id="qdXzB4fbS7DAhHp_a4e5-12" value="短信代理商后台管理" style="rounded=1;whiteSpace=wrap;html=1;absoluteArcSize=1;arcSize=14;strokeWidth=2;fillColor=#ffcc99;strokeColor=#36393d;" parent="1" vertex="1">
          <mxGeometry x="700" y="95" width="70" height="70" as="geometry" />
        </mxCell>
        <mxCell id="qdXzB4fbS7DAhHp_a4e5-14" value="短信代理商审核" style="strokeWidth=2;html=1;shape=mxgraph.flowchart.terminator;whiteSpace=wrap;fillColor=#e1d5e7;strokeColor=#9673a6;" parent="1" vertex="1">
          <mxGeometry x="880" y="100" width="100" height="60" as="geometry" />
        </mxCell>
      </root>
    </mxGraphModel>
  </diagram>
  <diagram id="SG3oKmHjBFsVGv5miCks" name="模板审核流程_2">
    <mxGraphModel dx="1434" dy="764" grid="1" gridSize="10" guides="1" tooltips="1" connect="1" arrows="1" fold="1" page="1" pageScale="1" pageWidth="827" pageHeight="1169" math="0" shadow="0">
      <root>
        <mxCell id="L3PrSJkYXZ_q8DAHNr-D-0" />
        <mxCell id="L3PrSJkYXZ_q8DAHNr-D-1" parent="L3PrSJkYXZ_q8DAHNr-D-0" />
        <mxCell id="Pc0rgN5RCGBkKPUy4N6n-0" value="&lt;b&gt;&lt;font color=&quot;#ff6666&quot;&gt;(1)&lt;/font&gt;&lt;/b&gt;提交模板" style="edgeStyle=orthogonalEdgeStyle;rounded=0;orthogonalLoop=1;jettySize=auto;html=1;" parent="L3PrSJkYXZ_q8DAHNr-D-1" edge="1">
          <mxGeometry relative="1" as="geometry">
            <mxPoint x="260" y="130" as="targetPoint" />
            <mxPoint x="180" y="130" as="sourcePoint" />
          </mxGeometry>
        </mxCell>
        <mxCell id="Pc0rgN5RCGBkKPUy4N6n-1" style="edgeStyle=orthogonalEdgeStyle;rounded=0;orthogonalLoop=1;jettySize=auto;html=1;entryX=0.5;entryY=1;entryDx=0;entryDy=0;dashed=1;" parent="L3PrSJkYXZ_q8DAHNr-D-1" target="Pc0rgN5RCGBkKPUy4N6n-8" edge="1">
          <mxGeometry relative="1" as="geometry">
            <mxPoint x="130" y="160" as="sourcePoint" />
            <Array as="points">
              <mxPoint x="130" y="200" />
              <mxPoint x="310" y="200" />
            </Array>
          </mxGeometry>
        </mxCell>
        <mxCell id="Pc0rgN5RCGBkKPUy4N6n-2" value="&lt;b&gt;&lt;font color=&quot;#ff6666&quot;&gt;(2)&lt;/font&gt;&lt;/b&gt;查询模板状态" style="text;html=1;resizable=0;points=[];align=center;verticalAlign=middle;labelBackgroundColor=#ffffff;" parent="Pc0rgN5RCGBkKPUy4N6n-1" vertex="1" connectable="0">
          <mxGeometry x="-0.175" y="-1" relative="1" as="geometry">
            <mxPoint as="offset" />
          </mxGeometry>
        </mxCell>
        <mxCell id="Pc0rgN5RCGBkKPUy4N6n-3" style="edgeStyle=orthogonalEdgeStyle;rounded=0;orthogonalLoop=1;jettySize=auto;html=1;exitX=0.5;exitY=1;exitDx=0;exitDy=0;exitPerimeter=0;entryX=0.75;entryY=1;entryDx=0;entryDy=0;dashed=1;" parent="L3PrSJkYXZ_q8DAHNr-D-1" target="Pc0rgN5RCGBkKPUy4N6n-8" edge="1">
          <mxGeometry relative="1" as="geometry">
            <mxPoint x="130" y="160" as="sourcePoint" />
            <Array as="points">
              <mxPoint x="130" y="230" />
              <mxPoint x="335" y="230" />
            </Array>
          </mxGeometry>
        </mxCell>
        <mxCell id="Pc0rgN5RCGBkKPUy4N6n-4" value="&lt;font color=&quot;#ff6666&quot;&gt;&lt;b&gt;(3)&lt;/b&gt;&lt;/font&gt;使用模板发送短信" style="text;html=1;resizable=0;points=[];align=center;verticalAlign=middle;labelBackgroundColor=#ffffff;" parent="Pc0rgN5RCGBkKPUy4N6n-3" vertex="1" connectable="0">
          <mxGeometry x="-0.2123" y="-1" relative="1" as="geometry">
            <mxPoint as="offset" />
          </mxGeometry>
        </mxCell>
        <mxCell id="Pc0rgN5RCGBkKPUy4N6n-5" value="存储数据库,状态为未审核" style="edgeStyle=orthogonalEdgeStyle;rounded=0;orthogonalLoop=1;jettySize=auto;html=1;exitX=1;exitY=0.25;exitDx=0;exitDy=0;" parent="L3PrSJkYXZ_q8DAHNr-D-1" source="Pc0rgN5RCGBkKPUy4N6n-8" target="Pc0rgN5RCGBkKPUy4N6n-9" edge="1">
          <mxGeometry relative="1" as="geometry" />
        </mxCell>
        <mxCell id="Pc0rgN5RCGBkKPUy4N6n-8" value="短信平台" style="rounded=1;whiteSpace=wrap;html=1;absoluteArcSize=1;arcSize=14;strokeWidth=2;fillColor=#b0e3e6;strokeColor=#0e8088;" parent="L3PrSJkYXZ_q8DAHNr-D-1" vertex="1">
          <mxGeometry x="260" y="80" width="100" height="100" as="geometry" />
        </mxCell>
        <mxCell id="Pc0rgN5RCGBkKPUy4N6n-9" value="Mysql" style="strokeWidth=2;html=1;shape=mxgraph.flowchart.database;whiteSpace=wrap;fillColor=#b1ddf0;strokeColor=#10739e;" parent="L3PrSJkYXZ_q8DAHNr-D-1" vertex="1">
          <mxGeometry x="510" y="20" width="60" height="60" as="geometry" />
        </mxCell>
        <mxCell id="Pc0rgN5RCGBkKPUy4N6n-10" value="&lt;b&gt;&lt;font color=&quot;#ff3333&quot;&gt;(1)&lt;/font&gt;&lt;/b&gt;提交模板信息" style="edgeStyle=orthogonalEdgeStyle;rounded=0;orthogonalLoop=1;jettySize=auto;html=1;exitX=1;exitY=0.5;exitDx=0;exitDy=0;" parent="L3PrSJkYXZ_q8DAHNr-D-1" source="Pc0rgN5RCGBkKPUy4N6n-8" edge="1">
          <mxGeometry x="-0.2264" relative="1" as="geometry">
            <mxPoint x="600" y="130" as="targetPoint" />
            <mxPoint x="530" y="130" as="sourcePoint" />
            <mxPoint as="offset" />
          </mxGeometry>
        </mxCell>
        <mxCell id="Pc0rgN5RCGBkKPUy4N6n-13" style="edgeStyle=orthogonalEdgeStyle;rounded=0;orthogonalLoop=1;jettySize=auto;html=1;exitX=1;exitY=0.5;exitDx=0;exitDy=0;entryX=1;entryY=0.5;entryDx=0;entryDy=0;entryPerimeter=0;dashed=1;exitPerimeter=0;" parent="L3PrSJkYXZ_q8DAHNr-D-1" source="Pc0rgN5RCGBkKPUy4N6n-18" target="Pc0rgN5RCGBkKPUy4N6n-9" edge="1">
          <mxGeometry relative="1" as="geometry">
            <Array as="points">
              <mxPoint x="720" y="130" />
              <mxPoint x="720" y="50" />
            </Array>
            <mxPoint x="535" y="105" as="sourcePoint" />
          </mxGeometry>
        </mxCell>
        <mxCell id="Pc0rgN5RCGBkKPUy4N6n-14" value="&lt;font color=&quot;#ff3333&quot;&gt;&lt;b&gt;(2)&lt;/b&gt;&lt;/font&gt;审核通过&lt;br&gt;回调修改&lt;br&gt;模板状态" style="text;html=1;resizable=0;points=[];align=center;verticalAlign=middle;labelBackgroundColor=#ffffff;" parent="Pc0rgN5RCGBkKPUy4N6n-13" vertex="1" connectable="0">
          <mxGeometry x="0.5462" y="-2" relative="1" as="geometry">
            <mxPoint as="offset" />
          </mxGeometry>
        </mxCell>
        <mxCell id="Pc0rgN5RCGBkKPUy4N6n-18" value="短信代理商审核" style="strokeWidth=2;html=1;shape=mxgraph.flowchart.terminator;whiteSpace=wrap;fillColor=#e1d5e7;strokeColor=#9673a6;" parent="L3PrSJkYXZ_q8DAHNr-D-1" vertex="1">
          <mxGeometry x="600" y="100" width="100" height="60" as="geometry" />
        </mxCell>
        <mxCell id="tfzWWxfYCT5VJm-W-hWl-0" value="产品" style="strokeWidth=2;html=1;shape=mxgraph.flowchart.start_1;whiteSpace=wrap;fillColor=#fff2cc;strokeColor=#d6b656;" parent="L3PrSJkYXZ_q8DAHNr-D-1" vertex="1">
          <mxGeometry x="80" y="100" width="100" height="60" as="geometry" />
        </mxCell>
      </root>
    </mxGraphModel>
  </diagram>
  <diagram id="CQrg8SPpuB0T7hkJSXFH" name="第 3 页">
    <mxGraphModel dx="1434" dy="764" grid="1" gridSize="10" guides="1" tooltips="1" connect="1" arrows="1" fold="1" page="1" pageScale="1" pageWidth="827" pageHeight="1169" math="0" shadow="0">
      <root>
        <mxCell id="0" />
        <mxCell id="1" parent="0" />
      </root>
    </mxGraphModel>
  </diagram>
</mxfile>
